<svg width="21" height="22" viewBox="0 0 21 22" fill="none" xmlns="http://www.w3.org/2000/svg">
<path fill-rule="evenodd" clip-rule="evenodd" d="M20.125 0.5H0.875L0 1.375V20.625L0.875 21.5H20.125L21 20.625V1.375L20.125 0.5ZM19.25 19.75H1.75V2.25H19.25V19.75ZM10.0625 8.90758L3.9375 5.3125V7.37917L7.86515 9.68554L3.9375 11.988V14.0625L10.0625 10.4635V8.90758ZM16.625 14.9375H10.0625V16.6875H16.625V14.9375Z" fill="white"/>
<path fill-rule="evenodd" clip-rule="evenodd" d="M20.125 0.5H0.875L0 1.375V20.625L0.875 21.5H20.125L21 20.625V1.375L20.125 0.5ZM19.25 19.75H1.75V2.25H19.25V19.75ZM10.0625 8.90758L3.9375 5.3125V7.37917L7.86515 9.68554L3.9375 11.988V14.0625L10.0625 10.4635V8.90758ZM16.625 14.9375H10.0625V16.6875H16.625V14.9375Z" fill="url(#paint0_linear_2472_17977)"/>
<path fill-rule="evenodd" clip-rule="evenodd" d="M20.125 0.5H0.875L0 1.375V20.625L0.875 21.5H20.125L21 20.625V1.375L20.125 0.5ZM19.25 19.75H1.75V2.25H19.25V19.75ZM10.0625 8.90758L3.9375 5.3125V7.37917L7.86515 9.68554L3.9375 11.988V14.0625L10.0625 10.4635V8.90758ZM16.625 14.9375H10.0625V16.6875H16.625V14.9375Z" fill="url(#paint1_linear_2472_17977)"/>
<defs>
<linearGradient id="paint0_linear_2472_17977" x1="10.5" y1="0.5" x2="10.5" y2="21.5" gradientUnits="userSpaceOnUse">
<stop stop-color="white"/>
<stop offset="1" stop-color="white" stop-opacity="0"/>
</linearGradient>
<linearGradient id="paint1_linear_2472_17977" x1="10.5" y1="0.5" x2="10.5" y2="21.5" gradientUnits="userSpaceOnUse">
<stop stop-color="white"/>
<stop offset="1" stop-color="white" stop-opacity="0"/>
</linearGradient>
</defs>
</svg>
