<svg width="1050" height="620" fill="none" xmlns="http://www.w3.org/2000/svg"><g clip-path="url('#a')"><path d="M294.93 64.555c-6.974-.31-7.284-5.89-7.284-5.89-4.262.31-5.425-1.472-2.79-4.766s-2.17-1.976-4.146-3.488c-1.976-1.433-3.099-5.425.814-6.548 3.991-1.163 6.587-1.938 7.129-3.914.465-1.976 8.408-.349 10.849-3.643 2.518-3.255-5.889-3.448-6.083-6.045-.155-2.635 12.398-7.905 15.033-8.718 2.635-.814 3.138-4.922 9.725-7.75 6.587-2.752 14.53-.775 17.513.193 2.983.97 2.828-1.162 3.293-2.635.504-1.472 9.106-.775 9.764-2.13.659-1.318 5.618-3.76 15.692-3.76S380.441.695 394.971.036a34.325 34.325 0 0 1 23.789 8.215s6.587-1.007 9.57 0c2.984.97-2.789 4.922-2.131 8.215.659 3.255 12.011 0 16.661-2.48 4.649-2.48 11.74 2.635 13.057 4.108 1.317 1.472-.504 2.325-6.974 7.556-6.432 5.231-15.808 13.64-17.474 16.275-1.666 2.596.31 3.914 3.487 5.89 3.099 1.938 4.455 7.363 4.107 9.029-.349 1.627-8.602.31-8.602 1.821 0 1.473 4.65 1.938 4.805 2.945.155.969-.155 1.318-1.473 5.58-1.317 4.263.775 2.131 2.131 4.418 1.318 2.325-6.935 9.028-8.911 12.981-1.976 3.953.814 6.394 3.1 11.16 2.324 4.766-4.572 8.37-9.067 12.981-4.456 4.611-11.391 3.604-16.66 5.27-5.27 1.628-7.091 3.604-10.229 9.494-3.139 5.929-14.878 7.246-18.482 9.029-3.642 1.821-3.332 6.083-2.169 8.718 1.162 2.635-1.821 1.822-4.65 3.449-2.79 1.628-2.131 11.509-3.603 14.105-1.473 2.635-6.432 2.17-7.091 0-.658-2.131-3.293-2.79-6.586-3.759-3.332-1.007-15.034-21.196-16.7-27.9-1.666-6.742 2.131-11.353 5.037-15.616 2.867-4.262 1.55-5.58-1.395-2.945-2.983 2.635-8.252.155-8.136-3.294.194-3.448 5.967-5.425 8.601-7.052 2.674-1.666-.774-3.487-6.083-6.084-5.308-2.635-2.634-1.627-3.138-7.207s-6.974-15.617-14.375-20.383c-4.804-3.1-9.027-2.054-13.289-1.007-2.364.58-4.727 1.162-7.168 1.007Zm-39.637-2.131c-4.145-1.627-10.422-3.565-14.025-1.124-3.642 2.442-10.423.155-11.392-2.48-1.007-2.635 2.635-1.976 2.131-5.928-.503-3.914 1.318-4.263 1.821-5.736.504-1.472-2.828-1.627-6.974 0-4.107 1.628-9.686-2.944-10.693-6.238-1.008-3.294-8.757-7.208-8.757-9.688 0-2.48 6.936-10.656 10.578-10.656 3.603 0 6.586 4.572 8.911 6.587 2.325 1.938 5.424 4.263 6.935 3.255 1.473-1.007-1.976-.155-4.959-4.456-2.983-4.262-8.253-6.394-6.277-8.525 1.976-2.131 10.423-5.076 15.188-4.921 4.805.155 6.277 4.262 9.416 0 3.138-4.263 12.708-6.394 34.677-6.394 21.968 0 30.376 2.131 29.059 6.2-1.318 4.146-10.229 6.278-12.554 9.688-2.324 3.487-7.245 6.432-11.546 9.88a28.433 28.433 0 0 1-11.585 5.736c-2.324.349-1.162 5.929-6.083 10.85-4.959 4.921-4.959 6.394-6.974 11.315 0 0-2.79 4.263-6.897 2.635ZM199.926 31.54c3.294-1.278 5.308 1.86 3.642 2.907-1.666 1.046-3.642 1.046-3.642 1.046s-3.293-2.635 0-3.953Zm5.037 10.463c3.061-1.279 6.781.658 8.602 4.107 1.859 3.488 4.998 3.371 4.998 5.038 0 1.627-2.906 2.441-4.688 1.821-1.783-.659-6.587-4.534-7.866-5.58-1.317-1.008-2.363-2.441-2.363-2.441s-1.666-1.628 1.356-2.945h-.039Zm-20.767-4.534c4.339.581 6.586 2.247 9.182 4.146 2.596 1.86 7.594 4.767 7.246 6.471-.388 1.706-5.347 2.287-7.594 1.55-2.248-.775-2.093-1.2-5.115-3.448a28.938 28.938 0 0 1-6.393-6.355s-1.627-2.945 2.712-2.325l-.038-.04Zm30.802 18.561c5.967 2.248 14.917 11.47 18.637 11.044 3.758-.388 8.407.736 9.919-.775 1.472-1.434 7.167-2.403 10.112-1.163 2.945 1.24 5.928 4.612 4.727 6.666-1.162 2.053-6.083 3.293-17.087 3.254-11.042-.077-16.273-.62-18.326-2.13-2.015-1.55-3.1-7.75-6.316-10.425-3.254-2.712-8.485-3.642-8.717-5.037 0 0 1.084-3.681 7.051-1.434Zm-.077 9.998c3.642 1.24 4.262 5.115 2.983 6.316-1.317 1.163-3.719 2.48-6.199 1.008-2.402-1.473-3.41-2.79-2.984-4.612 0 0 2.596-3.952 6.2-2.712Zm-25.069-6.975c2.093 1.279 2.906 1.201 5.58.62 2.673-.581 8.136-.775 8.717.387.582 1.201 1.938 10.385-1.472 10.966-3.487.582-7.594.117-8.136-2.286-.465-2.402-3.604-2.48-4.921-4.417-1.279-1.938-3.177-2.403-4.262-3.371-1.046-.93-1.86-1.706-1.124-1.938 0 0 3.565-1.279 5.618 0v.039Zm-32.429-11.625c1.859.542 1.859.039 2.014-1.279.155-1.279 2.867-6.316 5.735-5.076 2.828 1.201 6.199 3.642 5.618 6.316-.581 2.674-5.89 7.44-8.098 7.362-2.17-.077-3.332-1.588-4.727-2.596-1.356-.968-4.766-2.983-4.301-3.41 0 0 1.86-1.937 3.759-1.356v.039ZM133.4 57.503c3.604-2.48 12.593-5.58 14.724-5.154 2.092.388 3.254 3.023 2.828 4.766-.387 1.705 1.705 3.72 3.875 3.1 2.092-.659 3.719-.387 4.765 1.705 1.085 2.093 6.974 4.844 8.176 2.945 1.239-1.937-.388-3.216 0-4.921.387-1.705 1.704-4.844 3.99-2.829 2.325 2.015 2.209 3.991 4.107 4.379 1.86.388 5.115.078 5.425 1.86.271 1.782.775 3.836 2.673 4.146 1.821.31 2.48 2.519 2.015 3.1-.504.543-4.185 1.202-8.33 1.202-4.185 0-6.045-.97-9.222.89-3.177 1.86-6.393 5.93-10.539 3.023-4.145-2.945-5.424-4.146-9.763-5.192a21.496 21.496 0 0 1-9.415-4.263c-1.434-1.55-8.912-1.589-9.028-4.34 0 0 .155-1.898 3.758-4.379l-.039-.038Zm65.093 20.305c3.293-1.163 6.199-1.163 7.361 2.48 1.163 3.68 2.325 5.309 2.829 7.595.465 2.247-3.061 7.595-4.495 7.944-1.433.31-6.664-1.628-8.136-3.566-1.434-1.937-9.222-5.85-5.076-7.633 4.107-1.783 8.989.31 7.517-.969-1.434-1.318-4.417.62-4.069-2.131 0 0 .775-2.597 4.069-3.72Zm184.738 339.295c3.603 2.596 8.136 3.41 8.795 7.75.659 4.417-3.1 12.826-7.362 17.708-4.223 4.883-6.974 9.921-6.509 15.113.504 5.154-1.782 22.359-10.577 25.614-8.834 3.255-16.971 9.106-16.971 12.787 0 3.759-.155 7.479-4.417 15.113-4.262 7.633-11.585 19.646-14.994 19.801-1.124.077-2.248-.116-3.255-.31-2.131-.388-3.797-.775-3.448 1.162.503 2.713 5.23 7.44.813 11.625-4.417 4.263-14.684 3.449-14.839 5.232-.155 1.782 2.441 4.03-.969 6.006-3.448 1.937-6.703-.194-5.734 2.596.969 2.713 3.913 3.875 1.782 7.13-2.092 3.217-4.882 5.658-5.037 7.75-.155 2.132-5.424 1.318-4.262 5.541 1.163 4.224 5.89 6.007 2.325 11.044-3.603 5.038-9.299 9.416-8.02 13.795 1.317 4.379 11.081 13.64 10.112 15.733-.968 2.092-7.671 2.441-14.336 0-6.702-2.442-12.243-6.51-12.243-10.695 0-4.263-.659-6.665-1.937-10.579-1.356-3.875-2.79-11.354 0-16.662 2.712-5.425 3.564-6.356 4.223-9.766.62-3.41-.814-4.727-.659-9.416.155-4.688-.968-13.485 2.131-20.925 3.1-7.479 5.851-14.105 6.199-20.305.31-6.161 4.262-48.011 1.628-51.925-2.635-3.875-17.436-10.075-18.792-16.856-1.278-6.82-2.596-15.578-6.005-21.894-3.449-6.355-5.89-11.237-5.58-13.795.349-2.596.349-1.472.659-5.696.349-4.224 2.325-12.167 5.734-17.67 3.41-5.541 5.541-5.347 3.41-10.385-2.131-5.037-3.255-10.54-5.386-8.758-2.131 1.783-5.385 5.503-8.64 1.434-3.254-4.03-8.64-14.105-14.839-16.856-6.2-2.751-13.561-1.163-16.312-5.503-2.79-4.378-8.175-5.076-10.771-4.921-2.635.194-24.487-12.787-25.456-15.887-1.007-3.061-1.627-5.813-3.603-11.354-1.938-5.503-10.772-12.478-14.026-19.143-3.255-6.626-10.771-12.981-10.461-10.85.348 2.093 5.889 5.658 8.02 11.199 2.092 5.503 3.409 9.726 6.005 12.981 2.635 3.255 4.107 4.844 3.294 6.162-.814 1.278-9.144-3.72-10.772-9.92-1.627-6.162-9.492-15.578-10.306-19.453-.775-3.875-4.533-6.82-8.95-11.857-4.417-5.038-14.723-20.615-15.343-30.807a320.003 320.003 0 0 0-2.441-26.931c-.969-5.541-9.803-11.044-9.803-17.36 0-6.355-13.212-17.709-16.815-23.056-3.565-5.348-15.343-18.174-24.139-18.174-8.795 0-10.267-1.937-11.43-3.875-1.162-1.937-5.191-3.604-5.191-1.627 0 1.937-1.008 4.688-3.1 6.626-2.131 1.937-6.858 5.696-7.517 3.255-.658-2.441-3.254-7.285-3.603-5.813-.31 1.434.504 2.713 0 5.038-.465 2.247-2.596 3.216-1.472 4.495 1.162 1.317 4.572 2.945 3.913 4.882-.659 1.938-4.727 5.658-5.85 4.689-1.163-.969.155-6.161-2.325-5.812-2.402.31-7.788 6.781-11.236 8.757-3.41 1.938-4.572.775-7.517 3.255-2.906 2.403-7.633 5.038-7.478 2.713.155-2.248 4.572-2.093 5.85-4.65 1.318-2.635 2.132-3.449 7.207-6.2 5.037-2.752 9.105-7.634 7.672-8.254a35.958 35.958 0 0 0-8.524-.814c-1.782 0-8.95 1.124-9.764-2.596-.813-3.759 1.473-2.79-2.44-6.51-3.914-3.72-7.827-6.006-6.549-8.603 1.318-2.596 9.648-6.626 12.592-8.447 2.906-1.783 3.875-3.875 2.093-4.03-1.783-.155-15.343-.349-16.66-1.473-1.28-1.162-3.565-4.533-2.907-6.316.659-1.782 6.51-6.665 8.64-5.812 2.131.775 6.858 1.937 7.013.775.155-1.163-8.33-8.293-9.298-11.664-.97-3.41.813-2.945 3.254-3.914 2.48-.969 8.175-3.72 11.275-6.665 3.1-2.906 9.454-6.975 17.94-4.534 8.523 2.442 17.938 5.038 23.169 4.728 5.23-.349 5.037-3.759 11.934-.194 6.857 3.565 11.08 6.51 15.498 5.386 4.378-1.162 23.479-6.355 25.262-6.2 1.821.194 1.976 2.287 5.734 1.628 3.758-.62 5.037-2.713 6.354-1.279 1.318 1.434 3.449 2.751 4.882 1.938 1.472-.775 4.107-1.628 5.889.31 1.783 1.937 7.517 5.192 10.617 5.192 3.099 0 6.974.814 7.361 2.596.31 1.783 1.434 2.287 4.688 2.597 3.294.348 12.244 2.131 12.593-.155.31-2.248 3.409-3.875-1.008-3.565-4.378.31-11.585 2.906-13.018.31-1.472-2.597 2.092-2.713-2.635-3.565-4.727-.775-10.267.503-10.267-2.093s1.627-4.379 4.417-4.727c2.751-.31 3.719-1.589 1.278-1.279-2.441.31-7.826.504-8.33-2.093-.465-2.596-2.441-3.1-1.782-5.85.658-2.752 4.262-8.293 2.634-8.293-1.666 0-1.821 3.1-4.417 7.13-2.634 4.069-4.92 9.106-8.02 6.665-3.1-2.442-4.223-3.72-6.509-5.813-2.286-2.131-5.889-9.416-.155-11.392 0 0 2.131-.892 1.627-3.217-.503-2.363-2.208-3.758 1.86-3.99 4.107-.233 14.53.31 19.76 3.603 5.231 3.294 10.113 8.486 13.561 7.169a21.695 21.695 0 0 1 8.292-1.783c2.324.078 6.47-.542 9.221-2.984 2.79-2.44 4.068-1.782 5.463-.542 1.395 1.279-3.487 6.471-2.751 8.254.736 1.782 2.441 7.944 7.555 10.152 5.154 2.17 7.207 4.379 5.89 5.89-1.318 1.55-3.759 4.301-3.41 5.541.31 1.202-.775 2.829-3.371 2.829h-6.431s-1.395 3.991 4.417 4.805c5.811.775 13.367.969 13.87-1.395.465-2.325 3.836-2.015 2.713-4.069-1.163-2.015-3.488-4.456-1.357-6.083 2.131-1.628 6.548-.892 7.013.813.504 1.705 3.604 3.1 2.209 5.348-1.356 2.286-2.712 3.332-1.279 3.991 1.356.659 5.192-1.395 5.115-4.727-.078-3.294-5.192-4.612-6.045-6.472-.775-1.86-2.441-6.2-.387-9.3 2.131-3.177 4.727-2.712 4.417-5.812-.349-3.061-1.666-11.974.542-12.826 2.209-.853 12.98-.039 12.748 2.053-.233 2.132-11.237 8.526-10.113 11.277 1.162 2.751 5.308 4.146 5.541 7.788.232 3.643-.737 8.293 1.549 9.417 2.286 1.162 2.131 2.906 3.41 3.41 1.317.465 1.821.387 2.131-1.202.349-1.627 3.1-2.208 4.068 0 1.008 2.17-.891 10.54 1.899 10.54 2.751 0 3.254-2.131 3.254-4.456 0-2.364 2.596-1.085 2.596-4.146 0-3.1 1.473-6.355-1.046-7.13-2.518-.814-8.64-2.713-10.616-5.192-1.937-2.52-4.301-10.075-.387-15.85a11.852 11.852 0 0 1 13.87-4.223c2.945 1.317 7.672.775 8.718.775 1.046 0 7.672-1.86 11.081.504 3.449 2.402 12.515 11.315 16.157 13.407 3.681 2.132 15.343 3.759 16.816 9.261 1.472 5.503-.31 8.913 3.913 12.168 4.262 3.255 13.948 6.975 11.856 11.199-2.054 4.223-5.967 8.447-8.601 6.51-2.596-1.938-9.454-4.573-7.982-2.325 1.472 2.325 10.461 8.137 8.989 11.392-1.472 3.255-4.921 5.348-6.858 7.13-1.937 1.783-6.199.504-11.624-4.224-5.346-4.688-10.577-8.098-14.8-7.943-4.262.155-9.144.348-9.299-3.72-.194-4.069 7.361 0 10.461-5.038 3.1-5.037 6.664-6.665 5.812-9.571-.775-2.906-5.347-1.163-6.819.969-1.473 2.131-4.262 1.627-4.727-1.279-.504-2.945 4.882-1.473 2.286-6.2-2.635-4.65-4.921-10.85-7.207-7.44-2.286 3.41-3.875 6.316-6.006 3.72-2.131-2.596-5.23-3.875-3.952-1.434 1.318 2.403 6.393 6.471 2.945 11.819-3.409 5.347-7.168 6.006-6.664 8.757.465 2.752 7.361 10.075 8.95 12.013 1.627 1.937 2.945 3.565-.465 4.069a12.41 12.41 0 0 1-4.727-.62c-2.053-.582-3.913-1.124-4.765-.194-1.473 1.627-3.875 3.875-7.827 1.937-3.875-1.937-2.751-4.223-2.286-5.812.504-1.628 2.635-7.169 1.162-7.169-1.472 0-.348 1.783-3.293 5.038-2.906 3.255-6.974 1.782-10.578 8.447-3.603 6.626-8.64 13.446-9.298 16.198-.659 2.79 4.378 4.262 5.54 6.355 1.163 2.092-2.441 1.937 4.068 6.316 6.548 4.379 10.927 7.634 17.126 9.261 6.199 1.628 10.306 0 10.306 3.41s-.349 8.138 1.279 9.571c1.627 1.434 1.821 2.248 2.324 4.379.465 2.093 4.882 2.596 5.851 0 .969-2.596-3.41-7.944-.814-11.354 2.596-3.41 7.168-5.696 5.541-10.385-1.627-4.727-7.672-11.237-6.199-12.981 1.472-1.782 2.789-.155 2.944-4.069.155-3.875-1.472-13.95.31-14.608.891-.31 1.356.116 2.131.581.775.426 1.86.891 4.069.542 4.417-.62 14.219-.155 16.311 3.914 2.131 4.069 3.294 1.473 4.417 6.665 1.163 5.193 4.069 11.199 7.168 7.44 3.1-3.72 4.766-7.944 7.362-6.471 2.596 1.434 2.131 18.174 8.64 21.08 6.548 2.945 16.157 5.347 16.157 11.354 0 6.006-1.472 13.795.969 16.236 2.441 2.441 3.758.775 4.107 4.534.31 3.758 3.874 6.975 2.286 9.726-1.666 2.79-6.548.504-10.772 0-4.262-.465-8.834-2.596-7.865-5.658 1.007-3.1 8.834-11.198 6.393-12.322-2.441-1.163-3.293 3.1-7.517 4.03-1.937.465-5.501.387-8.911.271-3.952-.116-7.633-.232-7.904.543-.465 1.472 6.354.503 4.727 3.875-1.627 3.448-2.441 7.75.194 10.617 2.596 2.868 6.974 2.635 8.291 0 1.317-2.635 4.107.465 3.758 2.054-.31 1.627-12.243 5.541-14.529 9.92-2.286 4.379-5.541 4.069-6.354 1.627-.775-2.441 4.882-5.347 2.634-5.037-2.324.31-2.131 0-6.044 3.875s-6.199 6.355-5.231 8.447c.969 2.132.814 2.945-2.131 4.534-2.944 1.628-12.243 6.665-12.553 11.858-.31 5.192-1.317 10.85-4.417 13.485-3.1 2.596-14.026 11.508-14.026 14.918s1.472 9.572 3.448 12.168c1.938 2.596 3.1 8.757.31 10.23-2.789 1.434-6.199-1.318-6.354-5.386-.194-4.03-.349-10.85-4.92-12.478-4.572-1.627-17.126-3.565-16.777-.969.31 2.597-1.318 5.193-3.604 4.224-2.286-.969-5.23-4.882-8.136-2.131-2.945 2.79-10.151 2.79-10.151 7.789 0 5.037-.31 10.075-.465 15.267-.194 5.193-.814 12.013 4.572 15.423 5.385 3.41 7.981 3.255 11.894 0 3.914-3.255 3.255-7.13 6.355-8.603 3.099-1.472 8.834 1.163 7.516 4.844-1.317 3.759-4.727 12.826.155 14.609 4.882 1.782 10.462-.155 11.12 4.882.62 5.038-1.821 10.695.155 13.95 1.937 3.255 5.386 5.813 8.485 4.689 3.1-1.124 3.875 0 6.355 1.163 2.441 1.162 3.099 2.247 6.354-1.318s6.548-8.254 13.871-6.82c7.361 1.472 10.926 3.41 19.256 3.759 8.33.31 14.336 5.657 18.598 10.54 4.262 4.882 12.244 4.688 16.002 6.316 3.758 1.627 5.385 9.92 6.858 14.299 1.472 4.378.31 6.316 7.981 7.944 7.672 1.627 7.517 1.162 9.454 3.875 1.937 2.79 3.1 2.945 10.771 4.262 7.672 1.279 7.013 2.092 10.617 4.65v.039ZM253.55 317.864c4.029 3.216 7.788 5.541 11.74 7.207 3.952 1.705 10.074 2.209 9.299 4.767-.775 2.596-2.596 4.805-5.464 3.255-2.867-1.55-5.114-2.713-9.376-5.309-4.262-2.558-5.269-3.72-8.524-3.1-3.254.659-7.245-.271-6.354-1.666 0 0 4.649-8.37 8.679-5.154Zm25.688 13.562c1.162-1.162 6.509-3.758 7.904-1.162 1.434 2.558 2.325 2.557 4.03 4.107 1.704 1.55 3.099 2.325 0 3.604-3.1 1.279-.504 2.596-6.083 2.441-5.58-.116-7.13-2.557-9.222-3.099-2.053-.504-2.983-3.217 0-3.721 0 0 2.209-1.046 3.371-2.208v.038ZM422.983 128.88c-.077-2.557.814-5.967 3.41-3.952 2.596 1.937 2.325 2.673 7.594 2.286 5.27-.388 14.568-1.201 15.963 1.162 1.395 2.403.388 5.038-.891 7.053-1.317 1.976-2.712 5.347-5.502 5.774-2.789.387-8.291.697-10.19-1.202-1.898-1.898-5.657-2.983-6.393-3.952a20.874 20.874 0 0 1-1.55-3.604s-2.324-.969-2.441-3.565Zm100.971-84.32c-2.364-1.395-2.906-6.394-.891-9.959 2.015-3.564 6.432-.387 9.57-1.782s2.751-2.79 7.013-1.628c4.262 1.163 4.029 1.28 5.967-.426 1.937-1.705 6.974-2.906 13.832-2.17 6.858.775 11.585 1.046 10.732 3.216-.775 2.132-3.177 6.82-6.238 7.557-3.099.775-5.695-.659-8.911-2.17-3.216-1.473-9.842-3.565-8.214-1.822a134.937 134.937 0 0 0 12.088 9.3c3.759 2.558 6.974 3.682 4.495 6.782-2.48 3.1-8.059 7.905-9.57 4.456-1.473-3.41-1.783-9.571-3.488-9.92-1.743-.388-4.494 2.867-5.075 5.038-.62 2.13-2.17 4.65-3.758 7.052-1.55 2.364-5.502.504-6.936-2.906-1.395-3.41-4.107-3.798-4.456-6.2-.387-2.48.233-4.03-1.666-3.798 0 0-2.092.775-4.494-.62ZM625.196 24.1c4.572 1.163 3.913 1.938 8.02 1.163 4.068-.853 5.54-3.1 6.858-.582 1.278 2.52-1.666 3.294-3.758 5.735-2.131 2.442-4.572 3.41-6.975 1.628-2.324-1.782-.387-3.371-4.262-3.798-3.952-.387-8.369-.89-6.741-3.022 0 0 2.324-2.248 6.858-1.124Zm28.245-5.192c4.068-3.565 8.485-8.913 9.454-4.883.968 4.069-3.1 6.665-2.131 9.494 1.007 2.867 2.635 1.201 6.199 0 3.603-1.201 5.076-.078 8.175-3.488 3.1-3.41 9.454 1.628 5.696 4.38-3.72 2.79-6.974.348-8.485 3.1-1.473 2.75-6.974 1.162-10.771 2.75-3.72 1.628-10.268 2.287-10.268-1.162 0-3.371-6.703-2.906-3.875-6.316.853-1.047 1.938-.31 6.006-3.875Zm2.945 67.657a12.014 12.014 0 0 0 0 11.354c-.504 4.534-5.735 0-9.803-3.565-4.068-3.565-5.386-1.627-6.509-5.348-1.163-3.72 14.994-19.297 18.753-24.18 3.758-4.882 7.516-3.72 12.243-5.657 4.727-1.938 7.168-.194 10.074-5.037 2.983-4.883 10.306-1.163 10.655 2.712.31 3.914-8.524 6.51-14.723 9.106-6.2 2.596-7.633 2.286-10.733 6.665-3.099 4.379-6.703 8.138-9.957 13.95ZM487.494 205.838c-6.857.968-9.608 2.751-9.608 2.751-3.216 1.317-2.131-2.441-1.008-4.379 1.163-1.937-1.627-3.1-1.782-5.037-.155-1.938 4.882-2.442 6.044-5.038 1.163-2.596-.155-2.712-2.324-6.006a128.487 128.487 0 0 1-7.323-13.291c-1.783-3.875 2.131-4.534 4.572-6.317 2.441-1.782 4.572-.348 4.727 1.279.193 1.628 2.634 1.938 6.315 3.1 3.72 1.163-.775 4.224-.93 7.75-.155 3.604 7.672 8.796 9.648 15.113 1.937 6.316-1.473 9.106-8.331 10.075Zm-16.428-6.82c-3.099 4.882-8.717 3.72-8.717 3.72-3.255-1.434-1.628-3.875.852-9.843 2.441-5.929 2.441-7.827 6.199-9.61 3.72-1.782 6.355 4.534 5.037 7.944-1.317 3.41-.31 2.906-3.371 7.75v.039ZM230.613 218.16c-3.255 1.279-4.456 4.495-4.456 4.495-.543 1.046.194 1.938 2.325.736 2.131-1.24 5.153-1.433 6.083-.31.891 1.085 2.208 2.829 3.642 1.822 1.395-1.008 1.085-1.008 3.099-3.023 2.054-2.015-3.332-4.534-5.812-6.161-2.557-1.589-1.666 1.124-4.881 2.441Zm6.858 19.22c-.504-3.526 2.44-2.945 3.874-5.541 1.395-2.635.271-4.263-1.317-4.03-1.628.194-4.65 4.844-5.463 7.634-.814 2.828 0 8.99 0 8.99.232 2.325 2.402 1.511 3.487 0 1.162-1.55-.078-3.527-.581-7.053Zm19.062-6.665c-.116-1.899-2.944-1.279-7.323-3.41-4.339-2.131-3.099 1.201-3.099 1.201s1.162 1.628 2.208 3.565c1.008 1.938.388 2.984 1.008 4.767.62 1.782 3.138-.078 3.874-2.403.698-2.325 3.41-1.782 3.332-3.72Zm739.572-129.037c4.265 0 9.295 0 19.375 5.037 11.78 5.813 32.51 17.321 32.51 18.6 0 1.318-2.79 1.318-4.27 4.108-1.47 2.712.35 7.13-4.88 5.967-5.23-1.124-10.92-8.254-13.4-7.44-2.41.775-.47 1.938-4.54 4.689-4.1 2.751-8.52 3.255-8.33 4.379.16 1.162 4.73 4.882 2.75 7.323-1.93 2.442-7.17 2.442-7.82 4.03-.66 1.628-9.458 9.417-16.277 10.385-2.634.388-5.812.31-8.795.233-4.921-.116-9.338-.233-10.151 1.55-1.318 2.945-3.604 5.851-3.759 11.392-.155 5.503.659 6.82-4.92 11.509-5.541 4.689-11.236 18.988-14.84 18.174-3.564-.814-3.099-23.056-1.472-27.125 1.666-4.03 10.616-11.315 12.399-14.57 1.821-3.255 10.461-6.975 11.274-9.416.814-2.442-.155-5.697-3.099-1.473-2.945 4.263-6.044 9.261-8.64 6.51-2.635-2.751-2.635-4.572-5.541-4.069-2.945.504-7.052.31-8.989 5.348-1.937 5.037.969 5.696-3.1 6.665-4.068.969-4.572 1.472-7.671-.659-3.1-2.092-18.753-3.255-23.48-.155s-22.046 19.646-20.729 21.584c1.279 1.937-.348 1.937 2.596 4.224 2.945 2.247 3.449.968 6.858-.969 3.41-1.938 5.89 1.937 6.858 2.092.969.155-.504-2.751 2.596-2.906 3.1-.155 2.131 9.416 2.131 13.136 0 3.72 2.131 4.224 2.441 7.285.349 3.1-3.1 4.883-3.1 6.007 0 1.162 2.441 7.788 2.325 8.912-.194 1.163-4.766 1.473-4.766 2.441 0 .969-3.758 2.287-3.448-.465.349-2.751 3.293-22.397.659-22.242-2.596.155-2.596 2.131-2.751 6.975-.155 4.882-6.703 15.112-8.834 18.212-2.092 3.062-6.819 12.943-10.733 13.95-3.952.93-8.678 1.434-11.429 5.154-2.79 3.759-8.021 4.728-6.045 8.758 1.938 4.068 6.355 11.547 4.727 14.298-1.627 2.752-8.64 6.975-9.299 4.534-.658-2.441 3.759-7.13-.155-9.726-3.913-2.596-4.417-2.131-5.037-5.696-.697-3.565-2.324-2.907-5.424-2.442-3.1.504-6.044.814-5.85-.968.155-1.783-6.858 3.255-6.2 5.037.62 1.783 1.279 4.379 3.255 2.441 1.937-1.937 3.254-3.255 5.85-2.441 2.635.814 2.325 2.131.853 5.193-1.472 3.1-6.703 2.286-5.58 6.316 1.163 4.069 6.703 15.112 5.231 22.242-1.472 7.13-7.516 11.354-8.795 14.919-1.317 3.565-6.393 8.138-10.306 10.23-3.875 2.131-11.237 5.348-13.677 5.813-2.48.503-15.692 1.511-14.22 6.703 1.472 5.193 3.913 7.44 7.207 12.633 3.254 5.192 4.378 11.702 2.092 14.609-2.286 2.906-7.362 3.875-7.672 7.478-.31 3.565-2.751 3.41-3.874 1.124-1.163-2.286-1.008-1.472-4.185-4.805-3.177-3.294-5.889-4.262-6.78-6.084-.891-1.782-2.325-4.456-3.604-1.782-1.201 2.712-1.278 4.805-2.247 6.975-1.007 2.209.078 4.727.891 6.084.775 1.395 3.178 5.308 7.246 9.416 4.068 4.146 5.23 5.192 5.23 9.029 0 3.797.233 8.68-1.317 8.757-1.55.078-8.136-6.82-8.718-10.075-.581-3.255-1.704-7.866-3.603-11.935-1.86-4.03-2.712-3.139-2.712-5.967 0-2.868 1.085-11.858.116-13.718-.969-1.86-2.208-2.131-2.867-5.425-.659-3.332-.504-6.742-1.86-6.355-1.395.388-4.998 3.333-6.044 3.488-1.046.155-2.364-4.263-2.131-7.208.232-2.945.504-5.27-1.782-7.789-2.325-2.518-5.657-4.262-5.967-6.2-.31-1.937-2.596-.93-3.913-.232-.465.271-1.395.232-2.48.155-1.86-.078-4.146-.194-5.037 1.472-1.356 2.597-2.751 7.75-7.904 12.245-5.153 4.573-13.561 7.479-13.561 9.301 0 1.743.852 9.881.349 11.237-.504 1.395-.581 4.65-1.783 6.897-1.239 2.287-2.324 6.2-4.572 6.82-2.324.659-6.78-3.642-6.974-8.176-.116-4.572-4.765-17.127-6.664-21.312a35.42 35.42 0 0 1-3.255-12.865c.233-2.519-2.208-4.689-3.37-3.992-1.124.775-6.432-2.325-7.478-4.65-1.085-2.402-5.153-7.827-7.827-9.028-1.356-.62-4.649-.31-7.865 0-3.255.31-6.509.581-7.827 0-2.596-1.24-8.717-3.759-10.5-4.805-1.821-1.047-7.013.387-8.911-2.442-1.86-2.828-11.585-14.337-13.948-13.872-2.325.504-3.565 5.774-2.015 8.292 1.55 2.519 7.168 7.053 7.478 10.54.348 3.488 3.448 4.883 4.92 3.875 1.434-.968 4.805-4.378 7.556-2.983a38.344 38.344 0 0 1 9.57 6.51c2.324 2.48 3.991 4.533 3.487 7.13-.465 2.596-14.917 17.36-18.753 20.421-3.836 3.1-8.253 3.836-14.994 7.169-6.781 3.293-11.856 6.2-13.329 3.952a183.916 183.916 0 0 1-9.841-21.816c-1.976-5.813-3.758-7.75-5.734-14.454-1.938-6.626-7.517-16.546-9.803-16.197-2.247.31-4.378-.659-1.434 4.688a123.652 123.652 0 0 1 8.951 22.398c1.317 5.502 3.758 4.534 6.548 12.322 2.75 7.789 7.981 11.703 9.957 15.733a7.675 7.675 0 0 0 9.919 3.759c3.448-1.473 11.778-2.79 13.057 1.627 1.317 4.379-9.609 21.894-16.273 31.465-6.703 9.572-18.288 19.298-18.288 24.18 0 4.844 1.937 11.005 3.41 16.198 1.472 5.192.504 12.012.504 15.577 0 3.604.309 7.983-5.735 11.548-6.044 3.565-10.771 8.757-9.609 13.291 1.163 4.534 2.596 5.813.659 10.23-1.937 4.379-7.865 6.161-8.02 9.881a23.101 23.101 0 0 1-3.41 10.734c-1.627 2.247-3.603 10.075-7.361 13.601a23.05 23.05 0 0 1-13.058 6.006c-4.727.659-12.205 6.51-16.66 4.573-4.378-1.938-1.124-9.571-4.03-15.771-2.944-6.162-7.051-9.068-7.865-15.578-.775-6.471-1.124-15.383-3.1-19.956-1.937-4.534-7.671-13.446-4.378-22.204 3.255-8.757 2.751-19.336 1.162-28.093-1.666-8.758-9.492-16.198-9.492-23.173 0-6.975 1.627-14.454-1.473-17.05-3.099-2.596-11.894-4.534-12.902-7.13-.968-2.596-10.073.465-14.181 2.402-2.595 1.24-3.719.93-4.959.582-.697-.155-1.472-.388-2.557-.233-2.945.31-10.268 5.038-13.871 1.938-3.565-3.1-15.498-12.982-17.125-18.988-1.628-6.006-10.927-12.632-9.144-19.452 1.821-6.82 2.789-7.789 2.324-12.013-.503-4.262.775-18.677 4.224-23.87 3.409-5.192 10.577-8.254 11.739-14.725a31.782 31.782 0 0 1 7.672-16.74c4.068-4.224 5.696-8.292 5.696-9.726 0-1.473 2.441-2.945-1.628-5.851-4.068-2.907-7.168 1.278-7.168-9.417v-12.012s.659-4.689 3.41-5.658c1.085-.387 3.875-.232 6.974-.077 4.96.232 10.578.504 11.004-1.395.62-3.1 4.223-8.293 0-11.664-4.262-3.41-9.493-6.51-8.524-8.912 1.007-2.48 4.262-2.945 7.865-2.945 3.565 0 9.144.077 11.895-3.953 2.79-3.991 9.803-16.972 14.53-17.825 4.726-.775 5.889-1.434 5.23-3.875-.658-2.441-4.107-7.285-3.099-9.222.968-1.938 4.572-6.975 6.199-5.038 1.627 1.938.968 7.13 2.092 6.975 1.162-.155 2.945-5.696 1.472-9.106-1.472-3.41-2.092-9.571-4.262-7.44-2.092 2.092-2.905 4.844-6.509 5.812-3.564 1.008-6.199-4.417-6.509-6.238-.31-1.86-4.417-8.332-.504-12.555 3.914-4.263 14.53-14.299 17.319-19.337 2.751-5.037 12.244-18.638 20.071-24.335 7.826-5.657 10.771-9.687 15.963-10.54 5.23-.774 17.977 1.706 18.287 3.682.31 2.015-.658 2.015 3.449 3.797 4.068 1.783 18.249 8.254 23.983 10.385 5.696 2.093 8.95 6.316 4.882 9.571s-9.957 3.255-12.398 3.255c-2.441 0-5.037 2.597-2.945 6.084 2.131 3.488 2.131.078 4.417-1.395 1.007-.659 1.627 0 2.208.581.775.775 1.55 1.55 2.984-.271 2.634-3.216 2.867-7.44 7.555-6.781 4.688.62 5.967.775 5.967-3.759.039-4.534 1.007-11.509 3.138-11.664 1.046-.077 1.434 2.364 2.015 4.844.543 2.48 1.317 4.96 3.216 4.883 3.758-.155 6.974-.504 9.958-4.689a11.396 11.396 0 0 1 9.298-4.573c1.473 0-.813 1.938 6.355 1.938s13.638.659 13.948-1.279c.232-1.937 1.356-2.596 0-4.882-1.395-2.248-3.836-1.279-3.836-4.03 0-2.751 2.945-5.115 4.495-2.015 1.549 3.138-.078 5.425 3.177 5.231 3.254-.155 5.889.349 8.989 2.131 3.099 1.783 8.485 4.534 10.074 2.596 1.666-1.937-3.565-7.207-4.224-9.958-.658-2.713 2.945-7.75 6.2-11.315 3.293-3.565 3.293-6.472 4.92-8.099 1.628-1.627 2.286-3.72 3.72 0 1.472 3.72 2.944 3.72 3.448 6.2.504 2.403.504 4.844 0 7.75-.504 2.906.388 5.812.388 9.106-.078 3.216-.892 6.471 1.394 6.471 2.325 0 2.131.31 1.628-3.41-.465-3.72-2.751-6.665-1.473-10.23 1.318-3.564.31-4.843 1.783-7.595 1.511-2.79-.31-5.696 1.821-5.037 2.131.62 2.324 5.037 4.262 5.037 1.937 0 11.391 2.093 12.05-1.317.658-3.41.155-8.215 5.036-9.068 4.921-.813 11.469-.193 13.91-3.913 2.441-3.72 9.958-12.168 14.181-12.323.968-.039 2.325 0 3.874.116 5.192.233 12.903.465 17.165-3.526 5.579-5.192 14.529-7.75 18.597-6.858 4.107.852 4.262 5.23 7.517 5.23 3.255 0 16.467 1.783 18.133 3.256 1.627 1.434 2.441 4.223.775 6.316-1.589 2.131-3.565 3.565-5.541 5.037-1.937 1.473-5.037-.503-6.005 2.442-1.008 2.906-5.58 4.03-5.58 6.16 0 2.093 3.952.466 4.921-1.162.969-1.588 3.758-4.688 6.199-5.153 2.441-.504.969 1.278 6.936 4.185 5.966 2.945 14.258 3.604 19.489 3.41 5.23-.155 7.826-4.844 11.081-5.038 3.293-.155 14.219.659 14.064 5.038-.193 4.378-2.324 3.1-1.007 5.696 1.317 2.596 1.821 3.565 2.325 5.657.465 2.132 2.712 4.573 3.874 1.163 1.163-3.41 1.821-4.572 4.262-3.875 2.441.62-1.937 1.744 3.758 2.558 5.696.813 15.499 1.317 15.964-.97.503-2.285-1.124-4.882 6.393-6.006 7.477-1.162 16.273-3.72 21.503-.775 5.231 2.907 6.393 10.695 14.065 9.688 7.671-.969 14.026-1.938 15.963 1.317 1.937 3.256.852 5.503 4.766 6.2 1.627.233 5.734.194 10.073.155 5.89-.077 12.244-.116 13.561.62 2.325 1.318 3.914 3.565 5.037 1.783 1.163-1.783-.93-3.255 3.952-3.1l2.131.039ZM627.947 451.435a6.974 6.974 0 0 1 5.153-5.851c3.719-1.163 5.85 6.975 5.308 10.927-.504 3.914-3.177 7.751-5.308 20.383-2.131 12.633-8.524 19.336-12.283 16.972-3.758-2.325-2.324-7.749-3.874-10.849-1.473-3.062-.388-7.169 1.743-10.773 2.131-3.642 0-6.704-.542-10.075-.543-3.41 8.95-5.774 9.803-10.734Zm219.686-111.6c0 3.604-2.286 4.728 0 7.479 2.247 2.751 8.795 10.385 9.299 12.671.465 2.248-.853 5.193.62 6.626 1.472 1.473 5.424 6.201 2.789 11.238-2.634 5.038-4.533 1.744-8.369 1.744-3.874 0-4.339-2.713-4.339-4.689 0-1.938 3.409-6.51 2.906-8.293-.504-1.782-4.882-3.565-4.727-6.781.155-3.255-1.627-5.192-3.1-8.137-1.472-2.907-2.48-3.1-2.208-6.975.232-3.875-.581-4.534 0-6.82.581-2.248.775-4.689 2.208-3.875 0 0 4.921 2.247 4.921 5.812Zm-6.083 23.25c1.162.62.658 3.72-1.046 5.968-1.705 2.286-5.618 3.565-5.463 1.937.155-1.589 4.068-3.875 4.262-5.967 0 0 1.123-2.597 2.247-1.938Zm-31.384 38.75c-.969-2.519.465-6.471 3.991-8.447 3.487-1.938 8.718-6.975 11.817-11.005 3.1-4.069 5.541-7.75 7.362-6.588 1.782 1.163 2.596 3.488 3.487 4.147.93.658 3.642 1.201 1.782 3.797-1.86 2.596-3.138 2.131-2.983 4.727.155 2.597.077 4.185 2.286 5.813 2.208 1.627 1.162 2.519.155 3.333-.969.813-4.262 3.254-4.262 4.533 0 1.318-.078 3.488-.775 5.813-.775 2.247-1.821 6.548-4.921 7.168-3.099.659-5.308-1.588-8.64-3.138-3.332-1.55-5.502-2.209-6.432-4.069 0 0-1.898-3.565-2.867-6.084Zm-39.327-20.847c1.55-.775 1.628-2.286 6.432 2.519 4.805 4.766 8.524 7.284 12.399 10.849 3.913 3.604 4.494 6.511 5.967 9.107 1.472 2.596 6.702 2.673 7.516 4.068.775 1.357-1.937 4.689-2.053 6.317-.078 1.627-1.86 6.82-3.487 6.975-1.666.155-11.353-10.308-12.67-13.873-1.318-3.565-5.153-10.462-7.091-13.562-1.937-3.1-8.059-8.68-8.059-9.881 0 0-.503-1.706 1.046-2.519Zm8.834 21.583c1.008-.155 2.286.776 3.023 3.488.774 2.674-.155 4.456-3.023-.814 0 0-1.007-2.519 0-2.712v.038Zm26.967 6.123c2.441-.775 3.759 0 2.441 2.402-1.278 2.325-3.564 0-3.564 0s-1.318-1.627 1.162-2.402h-.039Zm-5.269 15.694c-.853-1.512.62-4.96 3.797-3.992 3.177.969 4.262 3.721 7.207 3.411 2.944-.272 5.966-.621 8.562.891 2.635 1.55 4.689 2.945 7.633 3.603 2.945.62 7.827.853 8.137 2.132.348 1.317-1.821 2.712-3.487 2.402-1.589-.31-2.596.427-8.021-1.743a18.016 18.016 0 0 0-9.996-1.512c-1.201.233-7.827-2.17-7.827-2.17s-5.114-1.511-6.005-3.022Zm38.397 8.021c0-1.085 2.634-1.434 3.254-2.054.659-.659 2.829-1.937 4.805-1.433 1.937.542 3.603 1.317 2.169 2.518-1.394 1.163-3.138-.232-3.487 1.434-.31 1.666-1.55 2.209-2.944 2.325 0 0-3.797-1.705-3.797-2.79Zm14.142.465c1.627-1.008 2.092-1.55 3.487-2.519 1.433-1.007 4.455-1.937 5.23-.542.775 1.395-2.518 3.991-3.177 4.301-.62.349-.62 3.255-2.596 3.488-1.937.193-4.572-2.403-4.572-2.403s0-1.318 1.628-2.325Zm-13.639-14.337c-.077-1.589.271-3.565-.503-4.418-.775-.852-3.681-2.674-2.286-5.696 1.433-3.1 2.324-3.41 2.789-5.115.465-1.744 1.666-6.936 3.526-7.053 1.86-.077 7.284.543 8.524 0 1.162-.542 4.107-.891 3.642 0-.387.892-2.596 1.55-5.424 2.286-2.829.775-6.974-.658-6.974.543 0 1.162-.62 4.418.891 4.534 1.55.116 3.254-.31 4.339-1.085 1.085-.775 2.635-1.279 2.712 0 .117 1.317-.852 1.201-1.937 1.937-1.085.775-2.518.543-2.092 2.519.465 1.937.659 3.449 1.55 4.495.852 1.008 2.131 3.836 1.705 4.456-.388.659-1.589 1.202-2.906.775-1.318-.426-2.945-1.937-3.255-1.472-.349.504-2.208 3.642-3.177 3.875 0 0-1.046 1.046-1.124-.581Zm25.301-25.421c1.821.892 4.766 3.062 4.339 4.573-.426 1.511-2.324 2.247-3.293 2.364-.969.116-4.107 2.286-3.874-.659.193-2.906.542-5.309.542-5.309s.387-1.821 2.286-.969Zm-5.889 16.818c1.743-.271 1.627-.697 2.518.543.853 1.24 1.162 2.247.543 2.712-.659.426-3.1 0-3.1 0 0-.349-1.705-2.984 0-3.255h.039Zm10.267-.271c1.589.465 3.449 1.356 3.526 1.782.116.388.581 2.325-.775 2.558-1.278.232-2.247-.775-3.874-.775-1.628 0-4.146-1.395-3.371-3.294 0 0 2.906-.775 4.494-.271Zm9.105-10.695c3.797 1.55 4.34 5.27 5.115 6.626.775 1.395.62 3.41 2.828 3.061 2.17-.387.543.388 2.829-1.085 2.286-1.472 3.68-2.596 6.083-1.937 2.402.581 8.911 3.952 12.824 5.231 3.914 1.317 8.602 2.403 9.803 4.379 1.162 2.015 2.053 5.696 3.371 7.207 1.317 1.511 3.371 6.704 5.308 8.331 1.937 1.628 5.812 4.534 5.579 6.278-.232 1.705-6.315 2.054-8.059-.542-1.743-2.597-8.795-8.913-10.345-8.758-1.55.077-3.603 1.627-4.649 2.712-1.124 1.047-4.262 4.069-6.548 1.55-2.286-2.557-3.487-3.332-5.773-3.216-2.286.117-4.65-.852-4.65-2.247s-1.201-7.905-3.836-9.61c-2.596-1.744-9.143-3.372-11.081-6.51-1.937-3.139-6.083-4.418-6.199-6.2 0 0 3.565-6.782 7.362-5.27h.038Zm4.069 21.235c1.123.194 2.324.93 2.014 2.015-.348 1.085.117 1.55-.658 1.744-.775.232-4.069.116-2.712-3.1 0 0 .232-.775 1.356-.659Zm43.666-3.061c1.317-.117 6.625-.775 7.4-1.899.775-1.163-.426-4.999.659-5.58 1.085-.62 3.681 1.937 4.765 3.565 1.085 1.627 1.55 3.177 0 4.34-1.511 1.201-2.479 3.681-4.998 4.534-2.479.891-3.487 1.86-5.54 1.433-2.054-.426-4.882-2.247-4.998-3.332 0 0 1.394-2.945 2.712-3.061Zm-15.886 25.536c1.124 3.991 3.72 7.13 5.037 9.184 1.279 2.053 2.054 7.052 2.712 9.842.62 2.829 4.572 7.052 8.02 10.85 3.488 3.759 15.227 18.135 15.227 25.962 0 7.75-6.083 19.337-8.369 23.754-2.286 4.456-3.37 11.16-4.145 13.873-.737 2.712-6.82 3.487-9.454 5.192-2.596 1.705-7.943 1.163-12.05 0-4.146-1.201-12.515-11.237-15.459-12.012-2.945-.775-4.572-.853-5.541-3.682-.969-2.828-11.546-10.462-13.29-10.152-1.743.31-13.367 1.279-16.428 3.875-3.022 2.596-2.712 4.65-7.051 5.192-4.34.543-7.168.853-10.229 2.17-3.061 1.279-11.236 2.48-12.089-.542-.852-3.023.116-12.012-1.821-19.026-1.937-7.053-3.061-17.012 0-27.28 3.022-10.269 16.971-7.247 21.62-12.865 4.688-5.619 12.631-18.058 16.002-17.631 3.371.426 2.712 2.906 4.882 1.085 2.17-1.86 5.037-6.937 8.136-8.022 3.178-1.085 6.665.427 8.486.427 1.782 0 6.121-.969 5.347 1.859-.775 2.79-2.596 5.426-1.705 7.131.852 1.743 6.393 6.2 9.337 8.137 2.945 1.938 6.548 3.642 7.168-1.434.659-5.037-.542-14.143 1.124-16.546 1.588-2.364 1.395-3.332 2.79-3.604 0 0 .658.271 1.743 4.263Zm8.059 106.33c4.456 0 5.231.116 6.199-1.085.969-1.163 2.713 1.55 2.17 3.139-.542 1.627-.31 4.223-2.402 8.331-2.054 4.107-3.371 5.308-5.734 4.882-2.403-.465-2.325-2.17-4.146-6.2-1.86-3.991-2.79-5.851-1.55-7.013 0 0 1.007-2.054 5.463-2.054Zm76.91-26.273c2.286.388 4.457 5.541 6.087 8.138 1.62 2.673 5.03 3.41 5.77 6.006.77 2.596 1.43 2.054 2.94 3.255 1.55 1.162 1.32 3.371.66 5.309-.66 1.937-7.63 10.579-8.83 8.641-1.16-1.937-.66-3.681-2.4-5.309-1.748-1.589-3.026-2.364-2.058-3.875.969-1.55 4.258-3.255 3.368-6.82-.85-3.565-3.484-4.727-4.879-7.169-1.433-2.441-1.937-5.812-1.937-5.812 0-.31-1.007-2.829 1.279-2.364Zm1.937 28.559c2.87 2.248 4.61 2.48 3.1 5.425a31.144 31.144 0 0 1-6.587 8.292c-1.395.853-2.48 0-2.364 2.829.117 2.79-4.804 9.959-7.516 10.385-2.712.388-9.222-1.743-6.858-7.246 2.402-5.541 9.57-6.82 10.461-9.3.853-2.519 1.318-2.596 2.712-4.34 1.434-1.744 2.829-5.192 2.829-5.192s1.433-3.139 4.262-.853h-.039Zm-53.197-132.719c1.007-.077 2.596 1.899 5.579 3.604 2.983 1.705 5.812 3.836 7.904 4.844 2.015 1.007 4.533 1.86 4.843 3.797.349 1.938 4.882 6.394 1.937 6.51-2.944.078-4.262 1.279-5.734-2.053-1.511-3.294-2.828-3.682-4.882-5.736-2.053-2.092-4.92-2.053-6.122-3.758-1.162-1.705-4.339-3.914-4.339-3.914s-.194-3.216.814-3.294Zm-73.5-140.197c1.627-2.79 3.758-7.634 6.354-8.293 2.596-.659 8.33.155 10.926-2.286 2.596-2.403 10.113-9.416 11.081-13.601 1.008-4.263-.155-15.423 1.318-16.275 1.472-.775 4.068-1.085 4.417-3.062.309-1.937.968-5.192 2.595-5.657.775-.233 1.589.93 2.713 2.054 1.278 1.356 2.944 2.712 5.114 1.821 4.107-1.628 4.727-1.434 6.548-2.713 1.782-1.317-.814 3.875-2.325 6.472-1.433 2.596-2.402 7.75-7.478 7.13-5.037-.659-7.013-2.945-6.664-.349.31 2.596 1.627 2.596 1.627 7.982 0 5.348-4.262 5.503-4.107 10.385.194 4.844 2.635 9.068-3.758 12.013-6.354 2.906-21.852 2.712-22.317 5.657-.504 2.907-1.472 6.51-4.107 5.697 0 0-3.565-4.263-1.937-6.975ZM893.74 68.973c-1.55-2.52-2.635-8.215.697-8.642 3.371-.387 6.316 1.938 11.082 1.28 4.765-.698 6.702.115 7.71 2.208.968 2.092 1.55 4.301-1.55 5.309-3.1.969-7.982.27-9.958-.155 0 0-6.431 2.518-7.981 0Zm7.439 9.183c-.155-2.325-.271-5.425 2.518-4.727 2.79.697 6.858 3.061 8.137 4.727 1.24 1.667-.116 3.643-4.378 2.79 0 0-6.161-.387-6.277-2.79Zm21.697-14.066c3.216-.697 6.006.853 7.827 1.666 1.821.853 4.766 1.822 2.518 4.34-2.208 2.48-5.463 3.76-6.315 2.093-.775-1.666-3.487-2.945-3.487-2.945s-3.875-.581-3.604-1.821c0 0-.154-2.635 3.1-3.333h-.039Zm93.954 25.769c2.64-.271 4.89 1.821 6.16 2.519 1.24.697 2.79 4.456 0 4.998-2.79.543-13.56 2.635-11.77-2.518 0 0 2.94-4.728 5.61-4.999Zm-258.738-60.45c2.093-3.604 6.587-4.573 9.919-6.123 3.371-1.55 6.858.698 8.137 3.488 1.278 2.79 5.037 3.642 5.734 6.277.697 2.635.155 6.975-2.247 8.215-2.364 1.24-12.011.853-13.445-1.937-1.395-2.79-5.424-4.611-5.424-4.611s-4.766-1.667-2.712-5.27l.038-.04Zm27.006 11.857c1.821-3.758 4.068-6.703 7.439-5.037 3.332 1.705 7.555 5.193 5.889 7.401-1.705 2.248-.581 1.938-6.044 3.216-5.424 1.24-10.926 0-11.469-.697 0 0 2.364-1.124 4.185-4.883Zm-16.506 10.54c2.093-.774 4.456-1.356 4.766.737.271 2.092-1.705 2.519-4.068 2.79 0 0-2.79-2.713-.698-3.526Zm-138.824 55.258c1.162-2.79 8.524-3.216 8.988-1.976.543 1.24-.852 4.185-1.743 4.843-.891.659-4.262.93-4.262.93s-4.146-1.007-2.983-3.797Zm99.885 266.368c.62 4.727-2.48 7.323-4.766 7.323s-2.092-5.347-1.278-8.447c.775-3.1.659-4.883 1.278-5.697 0 0 4.108 2.132 4.766 6.821Zm81.559-45.571c3.1-.968 7.168 0 4.417 4.689-2.79 4.728-7.826 4.534-7.516 0 0 0 0-3.72 3.099-4.689Zm36.421-16.74c.155 2.287-1.008 8.293-2.984 9.417-1.937 1.162-4.726 0-4.068-3.875.659-3.875 2.441-7.944 4.068-8.603 1.047-.387 2.79.775 2.945 3.1l.039-.039Zm-269.281-22.707c3.604-.31 2.48-.775 7.517-1.473 5.076-.62 7.672-9.067 7.672-13.291s-.465-3.875-1.473-5.192c-.968-1.279-.31.813-2.751 2.441-1.317.891-1.472-.62-2.092-2.131-.581-1.279-1.472-2.558-3.797-2.403-5.037.31-5.541 4.689-8.485 1.124-2.945-3.565-4.882-5.348-7.362-7.944-2.402-2.596-2.092-7.789-4.223-11.044-2.092-3.255-2.751 2.093-3.1 5.813-.31 3.759 3.1 4.069 3.1 6.045 0 1.937-2.441 1.782-2.596 4.379-.155 2.596-4.572 2.441-5.231-1.318-.658-3.72-1.782-4.689-4.727-7.285-2.944-2.596-3.099-3.565-5.23-8.292-2.131-4.689-15.343-17.67-17.784-17.05-2.441.658 2.324 7.362 7.013 11.392 4.727 4.03 6.858 7.944 7.361 10.656.465 2.713 0 4.108-1.472 6.2-1.472 2.132-3.255 4.263-3.913 6.665-.659 2.442-5.231.969-6.045-.813-.813-1.783-2.789-1.163-2.944-3.255-.078-1.163.891-1.047 2.518-.892 1.317.078 3.1.194 5.153-.387 4.572-1.318 1.163-1.628.969-6.006-.155-4.379-5.851-6.317-8.64-8.603-2.751-2.286-5.386-5.812-9.299-9.571-3.875-3.72-4.572.775-8.137 3.41-3.603 2.596-4.262-1.473-6.703-1.473-2.441 0-3.099 3.41-4.727 7.944-1.627 4.534-3.913 2.441-6.354 3.565-2.48 1.163-1.317 8.448-2.944 12.671-1.628 4.224-7.827 2.752-9.803 5.697-1.937 2.906 1.937 2.906 1.937 2.906 4.417-1.938 7.866-4.379 8.989-6.316.775-1.24 5.579-.969 10.074-.698 2.518.155 4.959.31 6.432.194 4.068-.31 11.236-.659 13.018-.775 1.821-.194 3.758 6.587 3.952 10.501.155 3.875 3.565 4.883 7.827 6.006 4.262 1.163 9.764 8.603 14.49 9.572 4.766.968 7.052-5.503 9.144-7.75 2.131-2.325 7.013 1.588 10.462 4.03 3.409 2.441 8.64 3.1 12.243 2.751h-.039Zm67.921-35.65c-1.821-3.526.62-1.511 2.712-3.294 2.093-1.782-1.085-3.1-4.029-4.379-2.945-1.278-5.037-7.75-6.354-9.726-1.318-1.937 3.099-3.875 6.509-4.882 3.448-.969 5.037-4.224 2.944-4.224-2.131 0-9.298-4.379-14.18-1.783-4.921 2.597-3.952 7.983-3.952 7.983-.31 7.285 5.734 12.632 7.516 16.236 1.782 3.604-5.23 6.316-3.409 11.625 1.782 5.386 10.073 5.231 13.56 3.759 3.41-1.473.465-7.789-1.317-11.315Zm-55.638-10.579c4.882-2.131 8.291 5.813 11.585 6.471 3.254.62 11.739-4.843 9.298-6.82-2.479-1.937-11.429-8.098-14.219-10.385-2.751-2.247-6.199-.155-8.795.504-1.356.349-2.519-1.24-3.875-2.829-1.24-1.472-2.634-2.945-4.456-2.867-3.758.194-5.385 6.82-7.167 12.012-1.821 5.193 2.092 6.355 2.092 6.355 3.293 1.938 10.616-.348 15.498-2.441h.039Zm-50.292-65.1c-1.433 3.255-6.664 5.038-10.577 5.89-3.914.814-6.393 4.146-5.89 4.534 3.1 2.247 8.021 1.434 13.561 0a19.727 19.727 0 0 1 6.51-.581c1.704.077 3.099.155 4.494-.582 2.867-1.433 3.332-8.137 4.804-13.601 1.473-5.541 3.255-7.169 3.604-8.602.31-1.473 13.716-2.287 15.149-3.527 1.473-1.278 1.821-1.162-2.596-2.557s-6.703 1.356-10.267 1.55c-3.604.155-7.362-6.045-7.827-8.913-.504-2.945 5.037-6.858 5.541-10.423.465-3.565 4.727-5.348 6.354-8.254 1.627-2.945-2.945-3.41-5.386-3.41-2.441 0-3.254 3.216-3.254 6.781 0 3.604-3.604 3.914-8.137 6.084-4.61 2.209-5.075 7.905-5.075 10.152 0 2.287 3.409 4.534 4.068 7.944.659 3.41-4.727 7.634-5.386 10.734-.465 2.092.271 1.705 1.589 1.279.62-.194 1.356-.388 2.17-.31 2.596.155-1.938 2.596-3.449 5.812Z" fill="#fff"></path><path d="M898.893 538.625c0-.775.116-1.55.349-2.286a7.749 7.749 0 0 1-7.768-12.885 7.748 7.748 0 0 1 12.882 7.77 7.754 7.754 0 0 1 4.727.038 7.755 7.755 0 0 1 7.899 1.898 7.744 7.744 0 0 1 1.865 7.906 7.758 7.758 0 0 1-10.841 9.374 7.758 7.758 0 0 1-3.882-4.491 7.748 7.748 0 0 1-5.231-7.324ZM653.829 312.906a7.77 7.77 0 0 1-.349 2.286 7.751 7.751 0 0 1 9.609 4.922 7.75 7.75 0 0 1 2.363 1.278 7.752 7.752 0 0 1 10.172.41 7.756 7.756 0 0 1 1.994 3.078 7.743 7.743 0 0 1 8.235 2.343 7.746 7.746 0 0 1 1.052 8.497 7.748 7.748 0 0 1-14.246-.881 7.751 7.751 0 0 1-7.207-1.357 7.745 7.745 0 0 1-10.097-.317 7.749 7.749 0 0 1-2.03-3.015 7.75 7.75 0 1 1-9.958-9.998 7.75 7.75 0 0 1-4.649-4.766c-3.022-1.007-5.231-15.539-5.231-18.949.006-.803.137-1.6.388-2.363A7.75 7.75 0 0 1 636.393 279c4.262 0 7.749 15.112 7.749 19.375a7.752 7.752 0 0 1-.387 2.364 7.756 7.756 0 0 1 4.804 4.843 7.752 7.752 0 0 1 5.27 7.324Zm349.681 239.281a7.794 7.794 0 0 1-3.25-.721 7.763 7.763 0 0 1-4.383-8.264 7.754 7.754 0 0 1 6.763-6.464 7.784 7.784 0 0 1 3.31.337 7.724 7.724 0 0 1 3.61-.295 7.72 7.72 0 0 1 3.35 1.38c.99.718 1.8 1.662 2.36 2.753.55 1.091.85 2.299.85 3.524 0 1.226-.3 2.434-.85 3.525a7.806 7.806 0 0 1-2.36 2.753 7.72 7.72 0 0 1-3.35 1.38 7.724 7.724 0 0 1-3.61-.295c-.79.259-1.62.39-2.44.387Zm-684.829-33.906a7.75 7.75 0 0 1 11.768-6.686 7.747 7.747 0 0 1 3.343 4.206 7.756 7.756 0 0 1 5.053 5.587 7.75 7.75 0 0 1-14.895 4.217 7.756 7.756 0 0 1-5.269-7.324Zm283.81-110.437a7.745 7.745 0 0 1 2.734-5.887 7.752 7.752 0 0 1 9.341-.522 7.747 7.747 0 0 1 3.372 5.545 7.746 7.746 0 0 1-.336 3.305 7.766 7.766 0 0 1 .295 3.613 7.748 7.748 0 0 1-13.934 3.352 7.768 7.768 0 0 1-1.38-3.352 7.766 7.766 0 0 1 .295-3.613 7.785 7.785 0 0 1-.387-2.441Zm184.041-15.5a7.749 7.749 0 0 1 15.072-2.558 7.754 7.754 0 0 1 6.926 1.141 7.757 7.757 0 0 1 3.163 6.268 7.74 7.74 0 0 1-3.196 6.25 7.746 7.746 0 0 1-6.932 1.105 7.748 7.748 0 0 1-9.764-4.883 7.744 7.744 0 0 1-5.269-7.323Zm-85.24-65.875a7.745 7.745 0 0 1 2.733-5.887 7.756 7.756 0 0 1 6.252-1.743 7.74 7.74 0 0 1 3.089 1.221 7.74 7.74 0 0 1 3.373 5.545 7.746 7.746 0 0 1-.337 3.305 7.753 7.753 0 0 1-1.084 6.965 7.756 7.756 0 0 1-6.277 3.205 7.751 7.751 0 0 1-7.362-10.17 7.728 7.728 0 0 1-.387-2.441Zm134.64-44.563a7.752 7.752 0 0 1 4.184-6.897 7.786 7.786 0 0 1-8.601-5.076 7.762 7.762 0 0 1-4.649 0 7.754 7.754 0 0 1-1.971 7.802 7.751 7.751 0 0 1-7.832 1.846 7.744 7.744 0 0 1-9.299-3.797l.078 1.278a7.752 7.752 0 0 1-12.191 6.32 7.754 7.754 0 0 1-2.392-10.005 7.752 7.752 0 0 1 9.647-3.567c1.766.689 3.219 2 4.083 3.687a7.75 7.75 0 0 1 8.912-8.912 7.75 7.75 0 0 1 1.084-14.221 7.754 7.754 0 0 1 9.784-4.941 7.751 7.751 0 0 1 4.94 9.784 7.756 7.756 0 0 1 4.765 4.767 7.745 7.745 0 0 1 9.751 4.335 7.75 7.75 0 0 1-3.823 9.963 7.751 7.751 0 0 1 8.641 10.075 7.758 7.758 0 0 1 0 4.844 7.753 7.753 0 0 1-4.65 9.688 7.75 7.75 0 0 1 4.65 4.766 7.75 7.75 0 1 1-9.842 9.804 7.752 7.752 0 0 1-.232-14.609 7.75 7.75 0 0 1-4.65-9.687 7.758 7.758 0 0 1 0-4.844 7.787 7.787 0 0 1-.387-2.403Zm61.024-11.625a7.77 7.77 0 0 1-2.286-.348 7.748 7.748 0 1 1-14.039-1.713 7.748 7.748 0 0 1 8.925-3.403 7.745 7.745 0 0 1 1.971-7.802 7.743 7.743 0 0 1 7.831-1.846 7.74 7.74 0 0 1 6.964 1.085 7.748 7.748 0 0 1 2.357 9.802 7.756 7.756 0 0 1-5.708 4.133 7.766 7.766 0 0 1-3.613-.295 7.747 7.747 0 0 1-2.402.387Zm-407.679-19.065a7.743 7.743 0 0 1 2.541-7.104 7.757 7.757 0 0 1 7.378-1.576 7.75 7.75 0 0 1 4.843-9.61 7.75 7.75 0 0 1 0-4.65 7.75 7.75 0 0 1-4.843-14.725 7.748 7.748 0 0 1-.233-3.642 7.75 7.75 0 0 1-11.632 2.552 7.742 7.742 0 0 1-2.587-3.637 7.757 7.757 0 0 1-4.766-4.65 7.75 7.75 0 1 1 0-5.387 7.751 7.751 0 0 1 3.681-4.184 7.754 7.754 0 0 1-8.825-5.731 7.751 7.751 0 0 1 5.023-9.247 7.747 7.747 0 0 1 9.61 4.286 7.75 7.75 0 0 1-3.522 9.916 7.791 7.791 0 0 1 8.601 5.193 7.75 7.75 0 0 1 4.766 4.65 7.75 7.75 0 0 1 14.607.194 7.749 7.749 0 0 1 4.843 4.843 7.754 7.754 0 0 1 4.843 4.767 7.739 7.739 0 0 1 4.727 0 7.75 7.75 0 0 1 3.759-4.34 7.788 7.788 0 0 1-8.602-5.077 7.749 7.749 0 0 1-9.339-10.856 7.755 7.755 0 0 1 4.496-3.869 7.731 7.731 0 0 1 1.279-2.363 7.75 7.75 0 0 1 2.479-11.741 7.754 7.754 0 0 1-8.825-5.731 7.751 7.751 0 0 1 10.667-8.985 7.746 7.746 0 0 1 4.146 9.672 7.75 7.75 0 0 1-3.702 4.268l1.279-.077a7.748 7.748 0 0 1 7.694 8.63 7.758 7.758 0 0 1-1.65 3.964 7.747 7.747 0 0 1 1.356 7.207 7.753 7.753 0 0 1 5.201 6.778 7.752 7.752 0 0 1-4.193 7.443 7.79 7.79 0 0 1 8.601 5.154 7.757 7.757 0 0 1 4.843 4.766 7.75 7.75 0 0 1 9.764 9.765 7.758 7.758 0 0 1 4.727 4.65 7.75 7.75 0 0 1 9.531-4.727 7.755 7.755 0 0 1 1.576-7.378 7.756 7.756 0 0 1 7.103-2.542 7.746 7.746 0 0 1-3.701-4.269 7.748 7.748 0 0 1 14.111-6.293 7.75 7.75 0 0 1-8.124 11.337 7.75 7.75 0 0 1-5.811 14.26 7.753 7.753 0 0 1-4.882 9.61 7.747 7.747 0 0 1 .232 3.642 7.75 7.75 0 1 1-.775 2.287 7.744 7.744 0 0 1-4.378 3.758 7.749 7.749 0 0 1-3.758 4.418 7.748 7.748 0 0 1 3.802 14.977 7.747 7.747 0 0 1-9.79-9.933 7.751 7.751 0 0 1 3.702-4.269l-1.279.077a7.75 7.75 0 0 1-3.564-14.647 7.749 7.749 0 0 1-8.912-8.913 7.732 7.732 0 0 1-4.902 3.893 7.756 7.756 0 0 1-6.179-1 7.75 7.75 0 0 1-1.86-11.301 7.748 7.748 0 0 1-1.201-2.132 7.749 7.749 0 0 1-9.648 4.65 7.743 7.743 0 0 1-1.278 2.325 7.75 7.75 0 0 1-8.408 12.245 7.747 7.747 0 0 1-9.609 4.844 7.75 7.75 0 0 1-14.297 5.813l.116 1.317a7.753 7.753 0 0 1-6.494 7.709 7.748 7.748 0 0 1-8.616-5.229 7.747 7.747 0 0 1-4.953-9.477 7.748 7.748 0 0 1 14.794-.327 7.752 7.752 0 0 1 4.417 3.759Zm-355.605-1.279a7.75 7.75 0 0 1 2.48 15.113 7.753 7.753 0 0 1-9.822 4.863 7.744 7.744 0 0 1-4.466-3.904 7.761 7.761 0 0 1-.397-5.919 7.748 7.748 0 0 1 9.764-9.765 7.757 7.757 0 0 1 2.441-.388Zm422.712-72.113a7.756 7.756 0 0 1-5.054-5.587 7.747 7.747 0 0 1 5.439-9.208 7.745 7.745 0 0 1 7.331 1.731 7.742 7.742 0 0 1 2.125 3.26 7.749 7.749 0 0 1 4.805 4.65 7.749 7.749 0 1 1 9.336 10.129 7.747 7.747 0 0 1-8.949-3.929 7.78 7.78 0 0 1-1.627 6.161 7.75 7.75 0 0 1 1.356 7.208 7.751 7.751 0 0 1 .881 14.247 7.746 7.746 0 0 1-8.496-1.052 7.75 7.75 0 0 1-2.343-8.235 7.751 7.751 0 0 1-3.487-12.168 7.746 7.746 0 0 1-1.356-7.207h.039ZM363.199 503.75a7.742 7.742 0 0 1-5.075 7.284 7.744 7.744 0 0 1-8.585-2.263 7.753 7.753 0 0 1-.826-8.84 7.748 7.748 0 0 1 8.016-3.815 7.755 7.755 0 0 1-3.215-3.091 7.76 7.76 0 0 1-.978-4.352 7.749 7.749 0 0 1 5.2-6.778 7.752 7.752 0 0 1 12.244-8.409 7.752 7.752 0 0 1 11.407 1.917 7.75 7.75 0 0 1-11.407 10.173 7.736 7.736 0 0 1-2.325 1.279 7.753 7.753 0 0 1-1.521 7.418 7.746 7.746 0 0 1-7.119 2.579 7.753 7.753 0 0 1 4.184 6.898Zm316.744-33.906a7.748 7.748 0 0 1 7.708 6.494 7.754 7.754 0 0 1-5.228 8.618 7.76 7.76 0 0 1-5.587 5.055 7.758 7.758 0 0 1-7.24-2.081 7.754 7.754 0 0 1-.236-10.691 7.754 7.754 0 0 1 3.26-2.125 7.749 7.749 0 0 1 7.323-5.27Zm-419.38-87.188c0-.775.116-1.55.349-2.286a7.753 7.753 0 0 1-7.769-12.884 7.747 7.747 0 0 1 12.721 2.72 7.755 7.755 0 0 1 .162 5.049 7.75 7.75 0 0 1 9.609 4.921 7.743 7.743 0 0 1 5.09 5.572 7.746 7.746 0 0 1-9.321 9.323 7.744 7.744 0 0 1-5.572-5.091 7.746 7.746 0 0 1-5.269-7.324Zm531.78-31c0-.426 0-.852.117-1.279a7.752 7.752 0 0 1-9.916 3.523 7.75 7.75 0 1 1 10.691-5.809 7.746 7.746 0 0 1 11.591-2.521 7.746 7.746 0 0 1 2.589 3.606 7.746 7.746 0 0 1 5.091 5.572 7.754 7.754 0 0 1-5.424 9.235 7.754 7.754 0 0 1-7.345-1.733 7.754 7.754 0 0 1-2.124-3.27 7.752 7.752 0 0 1-5.27-7.324Zm-59.086-8.719a7.751 7.751 0 1 1-3.685 14.585 7.748 7.748 0 0 1-3.567-9.649 7.752 7.752 0 0 1 3.687-4.083 7.748 7.748 0 0 1-3.802-14.977 7.747 7.747 0 0 1 9.79 9.933 7.751 7.751 0 0 1-3.702 4.269l1.279-.078Zm-550.185-8.718c0-4.263-.387-11.625 3.875-11.625 3.409 0 10.19 6.083 11.236 9.145a7.746 7.746 0 0 1 2.973 12.828 7.748 7.748 0 0 1-12.814-3.025 7.747 7.747 0 0 1-5.27-7.323Zm626.707-21.313a7.746 7.746 0 0 1 7.284 5.038 7.75 7.75 0 0 1 3.681-4.185 7.75 7.75 0 0 1-8.64-10.075 7.75 7.75 0 0 1 4.804-9.727 7.746 7.746 0 0 1 10.839-9.287 7.748 7.748 0 0 1-.881 14.247 7.755 7.755 0 0 1-.039 4.767 7.75 7.75 0 0 1-3.797 9.3l1.278-.078a7.75 7.75 0 1 1-7.284 10.463 7.747 7.747 0 0 1-9.609 4.65 7.747 7.747 0 0 1-15.012-3.485 7.75 7.75 0 0 1 10.053-6.435 7.749 7.749 0 0 1 7.323-5.193ZM262.5 310.969a7.746 7.746 0 0 1-6.494 7.708 7.743 7.743 0 0 1-5.274-1.022 7.741 7.741 0 0 1-3.342-4.206 7.751 7.751 0 0 1-4.882-9.688 7.747 7.747 0 0 1-4.844-9.687 7.751 7.751 0 0 1-4.843-9.61 7.75 7.75 0 0 1-4.998-14.648 7.744 7.744 0 0 1-4.611-4.727 7.759 7.759 0 0 1-4.203.165 7.75 7.75 0 0 1-5.56-9.93 7.75 7.75 0 1 1 7.615-13.196 7.746 7.746 0 0 1 2.342 8.236 7.747 7.747 0 0 1 4.766 4.766 7.747 7.747 0 0 1 9.26 3.875 7.794 7.794 0 0 1 .232-3.681 7.76 7.76 0 0 1-4.997-5.544 7.748 7.748 0 0 1 14.8-4.493 7.76 7.76 0 0 1 2.649-3.551 7.754 7.754 0 0 1 11.532 2.699 7.752 7.752 0 0 1 8.835-8.945 7.75 7.75 0 1 1-2.481 15.3 7.754 7.754 0 0 1 3.681 4.185 7.755 7.755 0 0 1 4.804-4.65 7.751 7.751 0 0 1 9.687-4.883 7.754 7.754 0 0 1 3.758-4.34 7.787 7.787 0 0 1-3.681-.271 7.737 7.737 0 0 1-3.612.295 7.738 7.738 0 0 1-5.709-4.133 7.751 7.751 0 0 1 5.709-11.182 7.763 7.763 0 0 1 3.612.295 7.75 7.75 0 0 1 5.967 14.26 7.753 7.753 0 0 1 8.455 4.777 7.75 7.75 0 0 1-9.54 10.258 7.754 7.754 0 0 1-4.843 4.766 7.748 7.748 0 0 1-4.843 4.844 7.746 7.746 0 0 1-1.279 2.364 7.741 7.741 0 0 1 1.564 6.061 7.753 7.753 0 0 1-3.424 5.24 7.735 7.735 0 0 1-6.179 1 7.745 7.745 0 0 1-4.902-3.892 7.751 7.751 0 0 1-5.189 8.648 7.748 7.748 0 0 1-9.34-3.805 7.796 7.796 0 0 1-.943 5.139 7.797 7.797 0 0 1-3.978 3.387 7.737 7.737 0 0 1 2.131 1.239 7.764 7.764 0 0 1 2.978-1.445 7.732 7.732 0 0 1 3.31-.07 7.758 7.758 0 0 1 5.248 3.782 7.76 7.76 0 0 1 .55 6.446 7.748 7.748 0 0 1-4.531 4.617 7.751 7.751 0 0 1 5.037 7.247Zm456.227-21.313a7.752 7.752 0 0 1 7.388 10.102 7.753 7.753 0 0 1-11.869 3.969 7.753 7.753 0 0 1-2.919-8.607 7.746 7.746 0 0 1-7.809-1.94 7.755 7.755 0 0 1-1.878-7.825 7.751 7.751 0 1 1 7.616-13.196 7.751 7.751 0 0 1 2.342 8.236 7.748 7.748 0 0 1 4.843 9.61 7.738 7.738 0 0 1 2.286-.349Zm-119.026 3.216a7.79 7.79 0 0 1 .233-3.564 7.754 7.754 0 0 1-3.565.232 7.752 7.752 0 0 1 3.332 3.332Zm-9.802-10.966a7.753 7.753 0 0 1 1.821-5.015 7.752 7.752 0 0 1 13.251 2.458 7.742 7.742 0 0 1 7.865 1.922 7.744 7.744 0 0 1 1.86 7.882 7.749 7.749 0 0 1-14.258 6.006 7.75 7.75 0 1 1-6.355-6.355 7.757 7.757 0 0 1-4.184-6.898Zm-378.736 6.781a7.751 7.751 0 1 1-3.685 14.585 7.748 7.748 0 0 1-3.567-9.649 7.752 7.752 0 0 1 3.687-4.083 7.748 7.748 0 0 1-3.802-14.977 7.747 7.747 0 0 1 9.79 9.933 7.751 7.751 0 0 1-3.702 4.269l1.279-.078Zm40.798-10.346a7.756 7.756 0 0 1 6.026-8.85 7.751 7.751 0 0 1 3.893.17 7.75 7.75 0 0 1 0-4.65 7.739 7.739 0 0 1-2.286-1.279 7.744 7.744 0 0 1-9.686 0 7.747 7.747 0 0 1-6.122 1.589 7.75 7.75 0 0 1 3.836 9.261 7.754 7.754 0 0 1 4.339 3.759Zm-100.854 3.565a7.748 7.748 0 0 1-15.11 2.48 7.74 7.74 0 0 1-5.054-5.587 7.746 7.746 0 0 1 2.08-7.241 7.754 7.754 0 0 1 7.248-2.052 7.755 7.755 0 0 1 5.567 5.076 7.755 7.755 0 0 1 4.417 3.759 7.786 7.786 0 0 1 .232-3.642 7.753 7.753 0 0 1-4.138-11.184 7.75 7.75 0 0 1 7.664-3.818 7.748 7.748 0 0 1 6.432 10.042 7.746 7.746 0 0 1 4.989 9.075 7.747 7.747 0 0 1-11.982 4.595 7.74 7.74 0 0 1-2.461-2.82l.116 1.317Zm89.115-17.437c.426 0 .852 0 1.278.116a7.754 7.754 0 0 1-3.332-3.333c.2 1.191.12 2.411-.232 3.565a7.765 7.765 0 0 1 2.286-.348Zm22.162-17.748c.2 1.191.12 2.411-.232 3.565a7.749 7.749 0 0 1 3.564-.232 7.749 7.749 0 0 1-3.332-3.333Zm-116.12-22.94a7.748 7.748 0 1 1-15.421-1.095 7.753 7.753 0 0 1 5.115-6.229 7.75 7.75 0 0 1 1.356-7.207 7.743 7.743 0 0 1-.942-8.202 7.748 7.748 0 1 1 13.03 8.202 7.743 7.743 0 0 1 1.406 6.987 7.749 7.749 0 0 1-4.893 5.18c.233.775.349 1.55.349 2.364Zm291.559-79.437a7.75 7.75 0 1 1 .002-15.499 7.75 7.75 0 0 1-.002 15.499Zm106.55 43.593a7.752 7.752 0 0 1-5.48-2.269 7.753 7.753 0 0 1 5.48-13.231 7.75 7.75 0 0 1 0 15.5Zm-347.74 14.532a7.75 7.75 0 1 1 .002-15.499 7.75 7.75 0 0 1-.002 15.499Zm405.858 0a7.75 7.75 0 1 1 .002-15.499 7.75 7.75 0 0 1-.002 15.499Zm-430.074 4.843a7.748 7.748 0 0 1-5.479-13.23 7.75 7.75 0 1 1 5.479 13.23ZM220.849 217a7.75 7.75 0 1 1 5.479-13.23 7.747 7.747 0 0 1 0 10.96 7.75 7.75 0 0 1-5.479 2.27Zm338.053 4.844a7.75 7.75 0 1 1 .002-15.499 7.75 7.75 0 0 1-.002 15.499Zm221.818 4.843a7.752 7.752 0 0 1-5.48-2.269 7.753 7.753 0 0 1 5.48-13.231 7.75 7.75 0 0 1 0 15.5Zm-550.185 14.532a7.75 7.75 0 1 1 .002-15.499 7.75 7.75 0 0 1-.002 15.499Zm619.927 8.718a7.749 7.749 0 1 1-.003-15.498 7.749 7.749 0 0 1 .003 15.498Zm-682.888 5.813a7.75 7.75 0 1 1 .002-15.499 7.75 7.75 0 0 1-.002 15.499Zm19.373 4.844a7.752 7.752 0 0 1-5.48-13.23 7.75 7.75 0 1 1 5.48 13.23Zm347.74-6.782a7.749 7.749 0 1 1-.003-15.498 7.749 7.749 0 0 1 .003 15.498Zm116.236 23.25a7.752 7.752 0 0 1-5.48-2.269 7.753 7.753 0 0 1 5.48-13.231 7.75 7.75 0 0 1 0 15.5Zm214.068-7.75a7.748 7.748 0 0 1-5.479-13.23 7.75 7.75 0 1 1 5.479 13.23Zm-233.441.969a7.745 7.745 0 0 1-5.479-2.27 7.746 7.746 0 0 1 0-10.96 7.75 7.75 0 1 1 5.479 13.23Zm-164.668 4.844a7.75 7.75 0 1 1 .002-15.499 7.75 7.75 0 0 1-.002 15.499Zm4.843 19.375a7.75 7.75 0 1 1 .002-15.499 7.75 7.75 0 0 1-.002 15.499Zm318.681 4.844a7.75 7.75 0 1 1 .002-15.499 7.75 7.75 0 0 1-.002 15.499Zm-46.494 14.531a7.75 7.75 0 1 1 0-15.5 7.75 7.75 0 0 1 0 15.5Zm-547.279 4.844a7.75 7.75 0 1 1 .002-15.499 7.75 7.75 0 0 1-.002 15.499Zm496.91.968a7.749 7.749 0 1 1-.003-15.498 7.749 7.749 0 0 1 .003 15.498Zm159.824 37.782a7.75 7.75 0 1 1 .002-15.499 7.75 7.75 0 0 1-.002 15.499Zm-560.839 13.562a7.75 7.75 0 1 1 0-15.498 7.75 7.75 0 0 1 0 15.498Zm327.398-3.875a7.75 7.75 0 1 1 .002-15.5 7.75 7.75 0 0 1-.002 15.5ZM863.054 372a7.75 7.75 0 1 1 5.479-13.23 7.752 7.752 0 0 1-5.479 13.23Zm-137.546 10.656a7.746 7.746 0 0 1-7.749-7.75 7.752 7.752 0 0 1 7.749-7.75 7.75 7.75 0 0 1 0 15.5Zm-223.755 3.875a7.745 7.745 0 0 1-5.479-2.27 7.746 7.746 0 0 1 0-10.96 7.75 7.75 0 1 1 5.479 13.23Zm-243.127 23.25a7.747 7.747 0 0 1-7.749-7.75 7.752 7.752 0 0 1 7.749-7.75 7.75 7.75 0 0 1 0 15.5Zm130.765 14.531a7.748 7.748 0 0 1-5.479-13.23 7.75 7.75 0 1 1 5.479 13.23Zm146.264 18.407a7.75 7.75 0 1 1 .002-15.499 7.75 7.75 0 0 1-.002 15.499Zm-272.186 5.812a7.75 7.75 0 1 1 0-15.498 7.75 7.75 0 0 1 0 15.498Zm319.649 56.188a7.75 7.75 0 1 1 .002-15.499 7.75 7.75 0 0 1-.002 15.499Zm9.687 14.531a7.75 7.75 0 1 1 0-15.5 7.75 7.75 0 0 1 0 15.5Zm357.426-11.625a7.75 7.75 0 1 1 5.479-13.23 7.747 7.747 0 0 1 0 10.96 7.75 7.75 0 0 1-5.479 2.27Zm-396.172 26.156a7.75 7.75 0 1 1 .002-15.5 7.75 7.75 0 0 1-.002 15.5Zm275.093-11.625a7.75 7.75 0 1 1 0-15.5 7.75 7.75 0 0 1 0 15.5Zm-536.624 3.875a7.75 7.75 0 1 1 0-15.498 7.75 7.75 0 0 1 0 15.498Zm643.173 10.656a7.748 7.748 0 0 1-5.479-13.23 7.75 7.75 0 1 1 5.479 13.23Zm43.589-13.562a7.75 7.75 0 1 1 5.479-13.23 7.747 7.747 0 0 1 0 10.96 7.75 7.75 0 0 1-5.479 2.27Zm14.529 14.531a7.75 7.75 0 1 1 .002-15.5 7.75 7.75 0 0 1-.002 15.5Z" fill="url('#b')"></path></g><defs><linearGradient id="b" x1="899.579" y1="128.844" x2="698.201" y2="709.776" gradientUnits="userSpaceOnUse"><stop stop-color="#FAAE40"></stop><stop offset="1" stop-color="#F38020"></stop></linearGradient><clipPath id="a"><path fill="#fff" d="M0 0h1050v620H0z"></path></clipPath></defs></svg>